<svg width="20" height="20" viewBox="0 0 34 33" fill="none" xmlns="http://www.w3.org/2000/svg">
<path d="M10.7343 16.7454L12.1358 7.8164C11.5624 7.8164 10.6068 7.8164 10.6068 7.8164C9.90608 7.8164 8.98234 7.43509 8.69567 6.70425C8.60011 6.45004 8.409 5.59209 9.58755 4.76592C10.0016 4.47994 10.2883 4.16218 10.3202 3.90797C10.3839 3.65377 10.3202 3.43134 10.129 3.24069C9.90608 3.01826 9.39643 2.85938 8.75938 2.85938C7.67638 2.85938 6.91191 3.49489 6.84821 3.93975C6.7845 4.28928 7.07117 4.54349 7.29414 4.70237C7.96305 5.21078 8.12232 5.94162 7.70824 6.64069C7.2623 7.33976 6.33856 7.8164 5.35112 7.8164C5.35112 7.8164 4.36368 7.8164 3.79033 7.8164C3.66292 8.67434 1.56063 22.0202 1.40137 23.0688H9.81052C9.84237 22.6239 10.2246 20.0819 10.7343 16.7454Z" fill="rgba(240, 245, 250, 0.6)"/>
<path d="M0.923731 26.1511H4.36384C5.82908 26.1511 6.17945 26.882 6.0839 27.581C5.98834 28.1212 5.63796 28.5343 4.96905 28.7885C5.79722 29.1063 6.11574 29.5829 5.98833 30.3455C5.82907 31.2988 5.00089 31.9979 3.9179 31.9979H0L0.923731 26.1511ZM3.18529 28.5979C3.85419 28.5979 4.17272 28.2483 4.23643 27.8352C4.30013 27.3904 4.10901 27.0726 3.4401 27.0726H2.8349L2.58008 28.5979H3.18529ZM2.80305 31.1399C3.50381 31.1399 3.88605 30.8539 3.98161 30.282C4.04531 29.8053 3.79049 29.4876 3.12158 29.4876H2.45267L2.19784 31.1399H2.80305Z" fill="rgba(240, 245, 250, 0.6)"/>
<path d="M10.7661 32.0617C9.87426 32.1252 9.42832 32.0299 9.2372 31.6486C8.75941 31.9346 8.24977 32.0934 7.67641 32.0934C6.65712 32.0934 6.30674 31.585 6.4023 30.9813C6.43415 30.6953 6.59342 30.4411 6.88009 30.2187C7.42159 29.742 8.82311 29.6785 9.36461 29.2972C9.39646 28.8841 9.2372 28.7252 8.72756 28.7252C8.12235 28.7252 7.64456 28.9159 6.78453 29.4878L6.97565 28.1532C7.70826 27.6131 8.40903 27.3906 9.2372 27.3906C10.2883 27.3906 11.2121 27.8037 11.021 28.9476L10.8298 30.2504C10.7661 30.6953 10.7661 30.8542 11.2758 30.8542L10.7661 32.0617ZM9.2372 30.0598C8.75941 30.3458 7.86753 30.314 7.77197 30.9177C7.74012 31.2037 7.89939 31.4261 8.18606 31.4261C8.47274 31.4261 8.82312 31.299 9.07794 31.1084C9.04609 31.0131 9.07794 30.886 9.10979 30.6953L9.2372 30.0598Z" fill="rgba(240, 245, 250, 0.6)"/>
<path d="M12.4545 27.4857H14.2383L14.1427 28.0894C14.7161 27.6128 15.1302 27.4221 15.7035 27.4221C16.691 27.4221 17.1688 28.0259 17.0095 29.0427L16.5317 32.0296H14.7479L15.1302 29.5511C15.1939 29.1062 15.0665 28.8838 14.7161 28.8838C14.4294 28.8838 14.1746 29.0427 13.9198 29.3604L13.5057 31.9978H11.7219L12.4545 27.4857Z" fill="rgba(240, 245, 250, 0.6)"/>
<path d="M18.4109 26.1504H20.1947L19.7487 29.042L21.4688 27.485H23.6666L21.4688 29.4233L23.2207 32.0289H20.9591L19.5895 29.9317H19.5576L19.2391 32.0289H17.4553L18.4109 26.1504Z" fill="rgba(240, 245, 250, 0.6)"/>
<path d="M0.923731 26.1511H4.36384C5.82908 26.1511 6.17945 26.882 6.0839 27.581C5.98834 28.1212 5.63796 28.5343 4.96905 28.7885C5.79722 29.1063 6.11574 29.5829 5.98833 30.3455C5.82907 31.2988 5.00089 31.9979 3.9179 31.9979H0L0.923731 26.1511ZM3.18529 28.5979C3.85419 28.5979 4.17272 28.2483 4.23643 27.8352C4.30013 27.3904 4.10901 27.0726 3.4401 27.0726H2.8349L2.58008 28.5979H3.18529ZM2.80305 31.1399C3.50381 31.1399 3.88605 30.8539 3.98161 30.282C4.04531 29.8053 3.79049 29.4876 3.12158 29.4876H2.45267L2.19784 31.1399H2.80305Z" fill="rgba(240, 245, 250, 0.6)"/>
<path d="M10.7661 32.0617C9.87426 32.1252 9.42832 32.0299 9.2372 31.6486C8.75941 31.9346 8.24977 32.0934 7.67641 32.0934C6.65712 32.0934 6.30674 31.585 6.4023 30.9813C6.43415 30.6953 6.59342 30.4411 6.88009 30.2187C7.42159 29.742 8.82311 29.6785 9.36461 29.2972C9.39646 28.8841 9.2372 28.7252 8.72756 28.7252C8.12235 28.7252 7.64456 28.9159 6.78453 29.4878L6.97565 28.1532C7.70826 27.6131 8.40903 27.3906 9.2372 27.3906C10.2883 27.3906 11.2121 27.8037 11.021 28.9476L10.8298 30.2504C10.7661 30.6953 10.7661 30.8542 11.2758 30.8542L10.7661 32.0617ZM9.2372 30.0598C8.75941 30.3458 7.86753 30.314 7.77197 30.9177C7.74012 31.2037 7.89939 31.4261 8.18606 31.4261C8.47274 31.4261 8.82312 31.299 9.07794 31.1084C9.04609 31.0131 9.07794 30.886 9.10979 30.6953L9.2372 30.0598Z" fill="rgba(240, 245, 250, 0.6)"/>
<path d="M12.4545 27.4857H14.2383L14.1427 28.0894C14.7161 27.6128 15.1302 27.4221 15.7035 27.4221C16.691 27.4221 17.1688 28.0259 17.0095 29.0427L16.5317 32.0296H14.7479L15.1302 29.5511C15.1939 29.1062 15.0665 28.8838 14.7161 28.8838C14.4294 28.8838 14.1746 29.0427 13.9198 29.3604L13.5057 31.9978H11.7219L12.4545 27.4857Z" fill="rgba(240, 245, 250, 0.6)"/>
<path d="M18.4109 26.1504H20.1947L19.7487 29.042L21.4688 27.485H23.6666L21.4688 29.4233L23.2207 32.0289H20.9591L19.5895 29.9317H19.5576L19.2391 32.0289H17.4553L18.4109 26.1504Z" fill="rgba(240, 245, 250, 0.6)"/>
<path d="M24.7177 26.1511H26.7881L25.8644 31.9979H23.7939L24.7177 26.1511Z" fill="rgba(240, 245, 250, 0.6)"/>
<path d="M27.7759 26.1504H30.7064C32.9679 26.1504 33.6368 27.8027 33.4139 29.1691C33.2228 30.5037 32.1398 32.0289 30.1649 32.0289H26.884L27.7759 26.1504ZM29.6871 30.6308C30.6745 30.6308 31.2479 30.1541 31.4071 29.1055C31.5346 28.3429 31.2797 27.5803 30.1967 27.5803H29.6234L29.1456 30.6626L29.6871 30.6308Z" fill="rgba(240, 245, 250, 0.6)"/>
<path d="M21.9783 0C29.7504 0 35.1335 3.40001 33.7957 11.8841C32.7127 18.7477 27.2022 23.0692 20.4175 23.0692H18.8249L19.9079 16.1421C22.6472 16.1103 24.9406 14.8075 25.4184 11.8206C25.928 8.61124 24.3036 7.2131 21.3094 7.18133H19.0797C18.57 7.18133 17.9011 6.89534 17.7419 6.45048C17.6782 6.32338 17.5826 5.81497 18.4108 5.21123C18.7293 4.9888 19.2708 4.54394 19.3982 3.97197C19.4938 3.52711 19.3664 3.08225 19.016 2.7645C18.6338 2.41496 17.9967 2.2243 17.2004 2.2243C15.8307 2.2243 14.8114 3.05047 14.684 3.81309C14.684 3.87665 14.684 3.90842 14.684 3.97197C14.684 4.28973 14.8114 4.73459 15.3529 5.14768C15.544 5.30656 15.767 5.52898 15.767 5.81496C15.767 5.94207 15.7351 6.10095 15.6077 6.25983C15.2892 6.80002 14.5247 7.14955 13.7284 7.14955H12.2632L13.4417 0H21.9783Z" fill="rgba(240, 245, 250, 0.6)"/>
</svg>
